<svg xmlns="http://www.w3.org/2000/svg" width="80.825" height="71.354" viewBox="0 0 80.825 71.354"><defs><style>.a{fill:#4f7a6a;}</style></defs><g transform="translate(-297.068 -776.728)"><g transform="translate(297.068 776.728)"><path class="a" d="M356.424,776.728a19.082,19.082,0,0,0-11.95,4.136,27.128,27.128,0,0,0-6.993,8.4,27.339,27.339,0,0,0-6.993-8.414,19.16,19.16,0,0,0-11.95-4.12c-12.234,0-21.469,10.008-21.469,23.285,0,14.35,11.508,24.153,28.952,39.008,2.968,2.526,6.315,5.383,9.8,8.43a2.579,2.579,0,0,0,1.657.631,2.5,2.5,0,0,0,1.658-.631c3.489-3.047,6.835-5.9,9.8-8.43,17.444-14.855,28.952-24.658,28.952-39.008C377.893,786.736,368.658,776.728,356.424,776.728Z" transform="translate(-297.068 -776.728)"/></g></g></svg>