<svg xmlns="http://www.w3.org/2000/svg" width="91.085" height="74.807" viewBox="0 0 91.085 74.807"><defs><style>.a{fill:#4f7a6a;}</style></defs><g transform="translate(569.004 -351.839) rotate(90)"><path class="a" d="M417.441,544.624a82.538,82.538,0,0,1,5.677,12.3c2.523,6.623,1.577,12.931-4.416,11.985s2.208-6.939.315-11.985c-2.839-7.254-6.938-10.408-7.254-10.408-8.516,1.261-26.494,2.208-37.848-9.146-15.77-15.455-5.677-39.109-22.077-50.148,26.493-17.347,57.717-8.2,69.072,9.146,11.039,16.4,3.469,35.325-.631,43.84,0,0-21.132-33.432-31.54-36.271C400.725,515.607,417.441,544.624,417.441,544.624Z" transform="translate(0 0)"/></g></svg>