<svg xmlns="http://www.w3.org/2000/svg" width="256" height="138.936" viewBox="0 0 256 138.936"><defs><style>.a{fill:#1a474e;}.b{fill:#1a474f;}.c{fill:#d5899e;}.d{fill:#d6899f;}</style></defs><g transform="translate(-748.434 -92.573)"><g transform="translate(749.347 92.573)"><path class="a" d="M761.8,191.4a4.473,4.473,0,0,1-.516-2.136q0-4.141.387-12.429l.26-12.56a52.194,52.194,0,0,0-.39-5.307,32.592,32.592,0,0,1-.516-5.179,33.057,33.057,0,0,0-.778-6.087,37.071,37.071,0,0,1-.775-5.954,47.907,47.907,0,0,0-1.3-7.38,14.554,14.554,0,0,1-.516-1.877,4.3,4.3,0,0,0-.259-.971q-.519-3.624-1.683-8.933a191.935,191.935,0,0,0-4.273-19.032q-1.945-6.214-1.942-8.415a1.789,1.789,0,0,1,.775-1.489,2.94,2.94,0,0,1,1.813-.583l1.553,1.036q.391,5.826,3.5,20.779t4.659,17.154q.259-.648,1.294-11.264.906-9.45,2.591-18.773,1.551-8.545,3.755-8.545a6.523,6.523,0,0,1,1.036.065,1.158,1.158,0,0,1,.646.324,1.5,1.5,0,0,1,.259,1.036,8.837,8.837,0,0,1-.516,2.719l-.518,2.589-3.366,19.291q-.65,3.755-1.165,9.257t-.518,9.645a14.554,14.554,0,0,0,.13,2.071,18.217,18.217,0,0,1,.129,2.2l-.778,1.942v1.036l.259,5.049.261,2.719q.388,5.178.388,7.766,0,20.459-.259,26.154l.388.388a.522.522,0,0,0,.13.388v.516a4.786,4.786,0,0,1-.712,2.656,2.383,2.383,0,0,1-2.138,1.1A1.509,1.509,0,0,1,761.8,191.4Z" transform="translate(-748.689 -92.264)"/><path class="b" d="M763.4,193.493a2.248,2.248,0,0,1-2.008-1.4,5.28,5.28,0,0,1-.612-2.516c0-2.785.131-6.978.388-12.466l.259-12.539a51.976,51.976,0,0,0-.385-5.2,33.148,33.148,0,0,1-.521-5.268,32.454,32.454,0,0,0-.762-5.928,37.277,37.277,0,0,1-.791-6.112,48.208,48.208,0,0,0-1.277-7.2,13.922,13.922,0,0,1-.523-1.91,3.523,3.523,0,0,0-.19-.757l-.074-.243c-.345-2.4-.908-5.391-1.673-8.873a192.385,192.385,0,0,0-4.256-18.975C749.645,99.852,749,97.02,749,95.454a2.6,2.6,0,0,1,1.1-2.136,3.753,3.753,0,0,1,2.3-.744h.246l2.089,1.393.026.4c.258,3.831,1.427,10.785,3.481,20.668,1.6,7.679,2.712,11.989,3.486,14.366.191-1.643.468-4.256.871-8.388.6-6.3,1.479-12.641,2.6-18.839,1.157-6.37,2.562-9.21,4.551-9.21a7.612,7.612,0,0,1,1.167.074,1.983,1.983,0,0,1,1.084.549,2.159,2.159,0,0,1,.5,1.61,9.53,9.53,0,0,1-.557,2.973l-.494,2.494-3.363,19.271c-.429,2.478-.817,5.57-1.156,9.192s-.515,6.842-.515,9.571a13.835,13.835,0,0,0,.121,1.955,19.271,19.271,0,0,1,.138,2.318l-.058.3-.72,1.8v.88l.257,5.007.259,2.683c.26,3.473.392,6.108.392,7.844,0,13.167-.083,21.852-.246,25.832l.375.375v.256l.13.128v.856a5.588,5.588,0,0,1-.843,3.094A3.194,3.194,0,0,1,763.4,193.493Zm-4.91-61.882a5.9,5.9,0,0,1,.27,1.047,13.815,13.815,0,0,0,.489,1.77,47.878,47.878,0,0,1,1.337,7.634,36.47,36.47,0,0,0,.762,5.8,33.994,33.994,0,0,1,.791,6.235,32.042,32.042,0,0,0,.5,5.046,52.918,52.918,0,0,1,.4,5.439l-.26,12.576c-.257,5.485-.387,9.653-.387,12.413a3.62,3.62,0,0,0,.422,1.756h0c.191.359.387.542.579.542a1.592,1.592,0,0,0,1.46-.733,4.017,4.017,0,0,0,.581-2.214v-.282a1.347,1.347,0,0,1-.086-.244l-.448-.448.018-.356c.17-3.777.257-12.565.257-26.117,0-1.7-.129-4.29-.387-7.707l-.259-2.7-.262-6.318.778-1.939a17.833,17.833,0,0,0-.123-1.948,15.311,15.311,0,0,1-.136-2.17c0-2.779.175-6.049.521-9.721s.738-6.8,1.172-9.318l3.891-21.9a8.48,8.48,0,0,0,.5-2.559,1.381,1.381,0,0,0-.06-.513c0,.011-.052-.029-.175-.05a5.935,5.935,0,0,0-.9-.052c-.157,0-1.568.22-2.958,7.88-1.112,6.155-1.983,12.448-2.581,18.706-1.047,10.731-1.243,11.222-1.348,11.485l-.552,1.385-.861-1.219c-.707-1-1.974-3.9-4.792-17.457a190.871,190.871,0,0,1-3.481-20.49l-1.006-.67a2.08,2.08,0,0,0-1.1.411.985.985,0,0,0-.452.842c0,1.382.641,4.132,1.907,8.173a193.837,193.837,0,0,1,4.295,19.129C757.573,126.2,758.137,129.185,758.49,131.611Z" transform="translate(-748.998 -92.573)"/><g transform="translate(38.688 9.967)"><path class="a" d="M782.673,187.6a14.694,14.694,0,0,1-3.949-3.172q-1.813-2.33-2.848-13.076t-1.295-24.6q0-3.107-.13-4.661-.26-32.5-1.034-38.452l.775-1.813q2.979.388,2.978,7.119l.388,34.31q0,3.627.649,13.724.775,9.062.775,13.724,0,14.759,9.71,14.759,5.953,0,7.639-27.188l.129-2.591q.905-35.6.908-52.692l-.131-1.165a4.825,4.825,0,0,1-.13-1.165q0-1.425,2.2-1.426c1.034,0,1.683.261,1.94.778a26.819,26.819,0,0,1,.259,4.531q0,9.839-.775,13.206l.129.777a51.49,51.49,0,0,1-.39,5.179l-.259,5.179v1.295a5.478,5.478,0,0,1,.129,1.295q-.26,3.107-.259,5.956a22.441,22.441,0,0,0-.129,2.848q-.26,12.3-.518,21.362a64.828,64.828,0,0,1-3.107,19.032q-2.85,8.288-9.192,8.286A9.14,9.14,0,0,1,782.673,187.6Z" transform="translate(-772.586 -98.423)"/><path class="b" d="M787.458,190.073a9.985,9.985,0,0,1-4.866-1.465h0a15.588,15.588,0,0,1-4.164-3.348c-1.34-1.722-2.325-6.137-3.039-13.526-.689-7.13-1.125-15.428-1.3-24.662,0-2.042-.042-3.588-.126-4.609-.175-21.594-.521-34.5-1.031-38.415l-.029-.22,1.105-2.578.607.079c3.682.481,3.682,6.082,3.682,7.922l.388,34.3c0,2.413.219,7.014.647,13.681.515,6.025.777,10.667.777,13.775,0,9.386,2.911,13.95,8.9,13.95,1.939,0,5.407-3.434,6.831-26.429l.13-2.581c.6-23.638.906-41.36.906-52.651l-.126-1.076a5.157,5.157,0,0,1-.134-1.254c0-.672.295-2.235,3.012-2.235,1.364,0,2.261.413,2.665,1.227l.068.2a27.118,27.118,0,0,1,.275,4.69c0,6.532-.249,10.864-.762,13.228l.1.62a47.774,47.774,0,0,1-.382,5.4l-.257,5.13v1.16a6.578,6.578,0,0,1,.13,1.389c-.172,2.094-.259,4.075-.259,5.956a23.345,23.345,0,0,0-.13,2.848q-.259,12.329-.518,21.385a65.947,65.947,0,0,1-3.153,19.276C795.4,187.1,792.05,190.073,787.458,190.073Zm-4.065-2.873a8.394,8.394,0,0,0,4.065,1.254c3.881,0,6.637-2.533,8.427-7.741a64.306,64.306,0,0,0,3.063-18.8q.257-9.052.518-21.352a23.047,23.047,0,0,1,.137-2.947c-.008-1.809.081-3.835.254-5.907a4.762,4.762,0,0,0-.109-1.034l-.024-.193v-1.295l.261-5.219q.388-3.51.388-5.138l-.146-.8.036-.155c.5-2.177.756-6.559.756-13.024a28.414,28.414,0,0,0-.217-4.23,1.745,1.745,0,0,0-1.173-.27c-1.394,0-1.394.432-1.394.617a3.985,3.985,0,0,0,.105.966l.151,1.275c0,11.395-.3,29.13-.9,52.8l-.131,2.61c-1.181,19.075-3.864,27.957-8.446,27.957-6.98,0-10.519-5.239-10.519-15.568,0-3.064-.261-7.658-.772-13.654-.433-6.719-.652-11.354-.652-13.793l-.389-34.3c0-2.455-.312-5.365-1.711-6.143l-.4.943c.511,4.263.843,16.811,1.015,38.329.086,1,.13,2.6.13,4.667.171,9.176.607,17.431,1.291,24.521.838,8.691,1.921,11.68,2.682,12.657a13.908,13.908,0,0,0,3.711,2.965Z" transform="translate(-772.904 -98.732)"/></g><g transform="translate(86.353 12.299)"><path class="a" d="M851.278,184.568v-8.547q0-18.641-.775-29.13l-.39-4.79a36.6,36.6,0,0,1-.516-5.7q0-4.4.257-8.027l.259-8.025a26.984,26.984,0,0,0-.516-6.085Q847,116.08,833.929,168.773l-.13,1.942a27.2,27.2,0,0,1-1.034,5.177,5.291,5.291,0,0,1-1.1,2.2,2.151,2.151,0,0,1-1.618.775,3.773,3.773,0,0,1-2.979-1.034,4.832,4.832,0,0,1-.9-3.237q0-3.5-3.3-18.127t-7.122-28.094q-3.818-13.461-5.242-14.887-.131,4.532-1.037,21.361-1.813,29.783-1.812,46.869l.129,5.179q-.519,1.682-2.717,1.681a2.754,2.754,0,0,1-1.295-.71q-.908-.714-.908-1.1,0-11.654,2.072-40.912,1.942-27.188,1.944-40.782a3.479,3.479,0,0,0-.259-1.295,2.975,2.975,0,0,1-.39-1.165q0-1.942,3.366-1.942a2.312,2.312,0,0,1,2.591,1.942,21.991,21.991,0,0,1,.516,3.882l.13,1.554a54.341,54.341,0,0,0,3.756,10.359,94.57,94.57,0,0,1,3.755,9.71q.774,3.107,1.424,5.048,2.068,7.511,2.719,11.136l1.683,3.366q.388,1.942,1.554,6.344,1.165,4.921,1.683,8.027a36.3,36.3,0,0,1,.518,5.954q1.423-2.2,8.092-26.474t7.833-31.009a2.393,2.393,0,0,0,.194-.71q.063-.454.194-1.23a50.626,50.626,0,0,1,1.165-5.049q1.034-2.59,3.107-2.589a3.886,3.886,0,0,1,2.072.777c.775.518,1.165,1.036,1.165,1.552q0,53.99,1.683,57.1v6.732q-.131,2.978-.13,6.862a62.939,62.939,0,0,0,.9,12.429.825.825,0,0,1,.194.388q.065.257.194.646a4.835,4.835,0,0,1,.13,1.165,5.576,5.576,0,0,1-.84,2.85,2.4,2.4,0,0,1-2.007,1.424Q851.276,192.854,851.278,184.568ZM849.6,113.49h-.13l-.259.129.389.128Z" transform="translate(-802.048 -99.864)"/><path class="b" d="M854.178,193.972c-3.047,0-3.4-5.192-3.4-9.1V176.33c0-12.364-.26-22.145-.773-29.069l-.389-4.785a36.746,36.746,0,0,1-.519-5.763c0-2.968.087-5.687.259-8.084l.257-8c0-1.423-.05-2.665-.151-3.716-1.675,4.018-5.54,16.5-14.437,52.36l-.108,1.8a28.147,28.147,0,0,1-1.075,5.381,6.014,6.014,0,0,1-1.271,2.491,2.935,2.935,0,0,1-2.216,1.039,4.541,4.541,0,0,1-3.589-1.313,5.6,5.6,0,0,1-1.1-3.767c0-2.261-1.105-8.3-3.282-17.949-2.186-9.684-4.58-19.122-7.111-28.051-1.784-6.289-2.978-9.9-3.771-11.96-.163,3.787-.466,9.817-.922,18.255-1.2,19.742-1.811,35.493-1.811,46.825l.133,5.29-.039.128c-.317,1.026-1.181,2.251-3.491,2.251a3.161,3.161,0,0,1-1.795-.884c-.853-.67-1.217-1.189-1.217-1.737,0-7.75.7-21.535,2.073-40.968,1.288-18.03,1.942-31.732,1.942-40.726a2.654,2.654,0,0,0-.2-1,3.413,3.413,0,0,1-.447-1.465c0-1.256.725-2.751,4.175-2.751a3.115,3.115,0,0,1,3.384,2.591,22.476,22.476,0,0,1,.532,4.043l.126,1.487a54.776,54.776,0,0,0,3.69,10.1,96.744,96.744,0,0,1,3.788,9.8q.784,3.141,1.418,5.035c1.369,4.963,2.282,8.694,2.727,11.133l1.7,3.467c.254,1.27.772,3.387,1.542,6.3.779,3.285,1.348,6,1.7,8.1q.2,1.211.327,2.389c1.175-3.492,3.209-10.272,6.7-22.99,4.417-16.085,7.046-26.491,7.817-30.931l.073-.222a1.809,1.809,0,0,0,.117-.469c.043-.3.108-.72.2-1.246a50.9,50.9,0,0,1,1.181-5.125c1.053-2.651,2.691-3.188,3.889-3.188a4.667,4.667,0,0,1,2.52.911,2.814,2.814,0,0,1,1.526,2.227c0,44.453.863,55.375,1.584,56.71l.1.181V167.4c-.088,1.989-.13,4.285-.13,6.862a63.861,63.861,0,0,0,.85,12.083,1.832,1.832,0,0,1,.225.536c.039.157.1.353.177.588a5.683,5.683,0,0,1,.172,1.422,6.407,6.407,0,0,1-.952,3.259A3.153,3.153,0,0,1,854.178,193.972Zm-3.463-79.493a28.417,28.417,0,0,1,.516,6.182l-.259,8.053c-.172,2.39-.257,5.07-.257,8a35.751,35.751,0,0,0,.508,5.569l.395,4.853c.516,6.97.778,16.79.778,29.195v8.546c0,6.938,1.364,7.477,1.782,7.477.173,0,.7,0,1.311-1.028a4.749,4.749,0,0,0,.727-2.437,4.1,4.1,0,0,0-.105-.969c-.078-.222-.147-.458-.194-.646l-.168-.167-.031-.244a63.956,63.956,0,0,1-.924-12.6c0-2.6.044-4.92.129-6.9v-6.525c-.751-1.9-1.683-10.736-1.683-57.268,0-.165-.212-.484-.8-.88a3.207,3.207,0,0,0-1.623-.639c-.655,0-1.61.215-2.355,2.08-.568,2.122-.953,3.79-1.119,4.871-.087.521-.152.926-.192,1.222a3.413,3.413,0,0,1-.217.838c-.8,4.546-3.434,14.968-7.831,30.981-6.011,21.872-7.555,25.714-8.192,26.7l-1.489,2.3V168.3a35.7,35.7,0,0,0-.508-5.821c-.343-2.062-.906-4.743-1.672-7.974-.753-2.84-1.27-4.952-1.537-6.265l-1.709-3.489c-.427-2.387-1.337-6.109-2.7-11.063-.421-1.259-.906-2.978-1.427-5.067a94.8,94.8,0,0,0-3.709-9.579,54.487,54.487,0,0,1-3.811-10.532l-.141-1.639a21.691,21.691,0,0,0-.5-3.793c-.128-.638-.442-1.29-1.8-1.29-2.557,0-2.557.853-2.557,1.133a2.378,2.378,0,0,0,.3.8,4.361,4.361,0,0,1,.345,1.657c0,9.032-.656,22.772-1.944,40.839-1.372,19.363-2.068,33.1-2.071,40.816.015-.023.146.146.6.5a2.931,2.931,0,0,0,.848.542c1.266,0,1.673-.513,1.853-1l-.126-5.035c0-11.385.61-27.169,1.814-46.938.6-11.175.95-18.354,1.036-21.335l.053-1.88,1.327,1.332c.675.676,1.975,2.991,5.451,15.238,2.539,8.956,4.938,18.423,7.13,28.137,2.236,9.9,3.322,15.89,3.322,18.3a4.115,4.115,0,0,0,.7,2.7,3.057,3.057,0,0,0,2.371.759,1.354,1.354,0,0,0,1.023-.513,4.544,4.544,0,0,0,.914-1.868,26.668,26.668,0,0,0,1.013-5.061l.124-1.9c10.89-43.923,14.136-52.486,15.415-54.47l-1.442-.477,2.182-1.091h1Z" transform="translate(-802.357 -100.173)"/></g><g transform="translate(159.759 12.299)"><path class="a" d="M896.637,184.568v-8.547q0-18.641-.777-29.13l-.388-4.79a36.418,36.418,0,0,1-.518-5.7q0-4.4.259-8.027l.259-8.025a26.949,26.949,0,0,0-.518-6.085q-2.592,1.813-15.665,54.506l-.13,1.942a27.085,27.085,0,0,1-1.036,5.177,5.293,5.293,0,0,1-1.1,2.2,2.152,2.152,0,0,1-1.619.775,3.769,3.769,0,0,1-2.978-1.034,4.832,4.832,0,0,1-.906-3.237q0-3.5-3.3-18.127t-7.12-28.094q-3.821-13.461-5.244-14.887-.129,4.532-1.036,21.361-1.814,29.783-1.812,46.869l.129,5.179q-.519,1.682-2.719,1.681a2.76,2.76,0,0,1-1.295-.71c-.605-.476-.906-.843-.906-1.1q0-11.654,2.071-40.912,1.942-27.188,1.942-40.782a3.479,3.479,0,0,0-.259-1.295,2.987,2.987,0,0,1-.388-1.165q0-1.942,3.366-1.942a2.311,2.311,0,0,1,2.589,1.942,22.031,22.031,0,0,1,.518,3.882l.129,1.554a54.348,54.348,0,0,0,3.755,10.359,94.119,94.119,0,0,1,3.755,9.71q.777,3.107,1.424,5.048,2.071,7.511,2.719,11.136l1.683,3.366q.388,1.942,1.553,6.344,1.165,4.921,1.683,8.027a36.3,36.3,0,0,1,.518,5.954q1.423-2.2,8.092-26.474t7.833-31.009a2.39,2.39,0,0,0,.194-.71q.065-.454.194-1.23a51.212,51.212,0,0,1,1.165-5.049q1.034-2.59,3.107-2.589a3.879,3.879,0,0,1,2.071.777q1.165.777,1.165,1.552,0,53.99,1.683,57.1v6.732q-.131,2.978-.129,6.862a62.9,62.9,0,0,0,.906,12.429.856.856,0,0,1,.194.388q.063.257.194.646a4.853,4.853,0,0,1,.13,1.165,5.578,5.578,0,0,1-.842,2.85,2.391,2.391,0,0,1-2.007,1.424Q896.636,192.854,896.637,184.568Zm-1.683-71.078h-.13l-.259.129.388.128Z" transform="translate(-847.407 -99.864)"/><path class="b" d="M899.536,193.972c-3.047,0-3.4-5.192-3.4-9.1V176.33c0-12.364-.262-22.145-.775-29.069l-.387-4.785a36.752,36.752,0,0,1-.521-5.763c0-2.968.088-5.687.261-8.084l.258-8c0-1.423-.05-2.665-.152-3.716-1.673,4.018-5.54,16.5-14.437,52.36l-.107,1.8a28.274,28.274,0,0,1-1.074,5.381,6.037,6.037,0,0,1-1.271,2.491,2.942,2.942,0,0,1-2.217,1.039,4.536,4.536,0,0,1-3.588-1.313,5.6,5.6,0,0,1-1.105-3.767c0-2.261-1.105-8.3-3.281-17.949-2.188-9.684-4.58-19.122-7.112-28.051-1.782-6.289-2.978-9.9-3.771-11.96-.164,3.787-.466,9.817-.921,18.255-1.2,19.742-1.811,35.493-1.811,46.825l.133,5.29-.041.128c-.317,1.026-1.18,2.251-3.49,2.251a3.156,3.156,0,0,1-1.793-.884c-.855-.67-1.217-1.189-1.217-1.737,0-7.75.7-21.535,2.073-40.968,1.288-18.03,1.941-31.732,1.941-40.726a2.654,2.654,0,0,0-.2-1,3.407,3.407,0,0,1-.445-1.465c0-1.256.723-2.751,4.175-2.751a3.116,3.116,0,0,1,3.384,2.591,22.65,22.65,0,0,1,.533,4.043l.126,1.487a54.742,54.742,0,0,0,3.688,10.1,96,96,0,0,1,3.789,9.8q.784,3.141,1.419,5.035c1.369,4.963,2.28,8.694,2.725,11.133l1.7,3.467c.254,1.27.774,3.387,1.542,6.3.78,3.285,1.348,6,1.7,8.1q.2,1.211.327,2.389c1.177-3.492,3.211-10.272,6.7-22.99,4.417-16.085,7.046-26.491,7.817-30.931l.073-.222a1.675,1.675,0,0,0,.116-.469c.045-.3.11-.72.2-1.246a51.006,51.006,0,0,1,1.183-5.125c1.052-2.651,2.691-3.188,3.887-3.188a4.672,4.672,0,0,1,2.521.911,2.813,2.813,0,0,1,1.524,2.227c0,44.453.862,55.375,1.586,56.71l.1.181V167.4c-.087,1.989-.13,4.285-.13,6.862a64,64,0,0,0,.85,12.083,1.787,1.787,0,0,1,.225.536c.039.157.1.353.176.588a5.6,5.6,0,0,1,.173,1.422,6.393,6.393,0,0,1-.953,3.259A3.151,3.151,0,0,1,899.536,193.972Zm-3.463-79.493a28.415,28.415,0,0,1,.518,6.182l-.259,8.053c-.173,2.39-.259,5.07-.259,8a35.763,35.763,0,0,0,.508,5.569l.395,4.853c.516,6.97.78,16.79.78,29.195v8.546c0,6.938,1.363,7.477,1.78,7.477.174,0,.7,0,1.312-1.028a4.763,4.763,0,0,0,.727-2.437,4.1,4.1,0,0,0-.107-.969c-.076-.222-.146-.458-.194-.646l-.167-.167-.033-.244a63.949,63.949,0,0,1-.924-12.6c0-2.6.044-4.92.129-6.9v-6.525c-.751-1.9-1.683-10.736-1.683-57.268,0-.165-.212-.484-.8-.88a3.2,3.2,0,0,0-1.623-.639c-.654,0-1.61.215-2.357,2.08-.566,2.122-.951,3.79-1.115,4.871-.087.521-.152.926-.194,1.222a3.5,3.5,0,0,1-.215.838c-.8,4.546-3.434,14.968-7.831,30.981-6.01,21.872-7.554,25.714-8.193,26.7l-1.489,2.3V168.3a35.652,35.652,0,0,0-.506-5.821c-.345-2.062-.907-4.743-1.672-7.974-.753-2.84-1.272-4.952-1.539-6.265l-1.707-3.489c-.429-2.387-1.337-6.109-2.7-11.063-.422-1.259-.908-2.978-1.429-5.067a94.778,94.778,0,0,0-3.709-9.579,54.376,54.376,0,0,1-3.81-10.532l-.141-1.639a21.788,21.788,0,0,0-.5-3.793c-.128-.638-.44-1.29-1.8-1.29-2.557,0-2.557.853-2.557,1.133a2.385,2.385,0,0,0,.3.8,4.324,4.324,0,0,1,.345,1.657c0,9.032-.654,22.772-1.944,40.839-1.372,19.363-2.067,33.1-2.07,40.816.016-.023.144.146.6.5a2.948,2.948,0,0,0,.846.542c1.266,0,1.673-.513,1.855-1l-.126-5.035c0-11.385.61-27.169,1.814-46.938.6-11.175.95-18.354,1.034-21.335l.055-1.88,1.327,1.332c.675.676,1.974,2.991,5.449,15.238,2.539,8.956,4.939,18.423,7.13,28.137,2.237,9.9,3.322,15.89,3.322,18.3a4.107,4.107,0,0,0,.706,2.7,3.051,3.051,0,0,0,2.369.759,1.352,1.352,0,0,0,1.023-.513,4.543,4.543,0,0,0,.916-1.868,26.88,26.88,0,0,0,1.013-5.061l.125-1.9c10.888-43.923,14.135-52.486,15.413-54.47l-1.44-.477,2.18-1.091h1Z" transform="translate(-847.716 -100.173)"/></g><g transform="translate(226.749 11.782)"><path class="a" d="M903.38,187.743a2.259,2.259,0,0,1-.778-.906q1.168-3.107,1.167-22.657,0-3.755-.388-10.747l-.649-9.191-.776-1.683.387-1.554q-.774-1.811-2.33-6.085t-3.106-8.674q-4.661-12.3-6.085-17.737a42.1,42.1,0,0,1-1.167-4.79l1.812-1.424q1.291.26,3.756,8.286,1.939,5.7,3.5,11.264l1.554,4.92q2.331,8.028,3.366,8.284l.516-2.329-.258-.647q1.035-1.294,2.588-9.194,1.682-9.059,3.236-15.276,1.682-7.251,3.368-7.25a1.9,1.9,0,0,1,1.164.388,1.122,1.122,0,0,1,.52.906q0,1.942-3.886,15.277-1.942,6.346-3.237,11.911a52.173,52.173,0,0,0-1.554,11.78,5.153,5.153,0,0,1,.649,2.2,6.17,6.17,0,0,1-.39,1.813,6.385,6.385,0,0,0-.388,1.942q0,.648.518,5.826a41.767,41.767,0,0,1,.519,5.954q0,5.7.13,10.23v10.874q0,8.807-2.72,8.805A1.9,1.9,0,0,1,903.38,187.743Z" transform="translate(-888.773 -99.544)"/><path class="b" d="M904.751,189.38a2.552,2.552,0,0,1-1.541-.7h0a2.922,2.922,0,0,1-1.041-1.285l-.089-.27.1-.267c.508-1.355,1.115-6.336,1.115-22.372,0-2.478-.131-6.079-.387-10.7l-.638-9.032-.833-1.808.392-1.567c-.524-1.248-1.277-3.222-2.24-5.875q-1.556-4.277-3.11-8.682c-3.1-8.177-5.156-14.172-6.1-17.8a42.891,42.891,0,0,1-1.18-4.853l-.086-.477,2.489-1.955.366.074c.854.172,1.97,1.012,4.369,8.841,1.282,3.761,2.463,7.566,3.5,11.283l1.546,4.894a57.318,57.318,0,0,0,2.2,6.556l.064-.288-.34-.853.293-.367c.341-.427,1.11-2.144,2.427-8.844,1.112-5.993,2.2-11.149,3.245-15.318,1.277-5.507,2.52-7.862,4.153-7.862a2.7,2.7,0,0,1,1.649.549,1.9,1.9,0,0,1,.843,1.555c0,.885-.406,3.455-3.917,15.5-1.294,4.23-2.379,8.22-3.227,11.869a52.014,52.014,0,0,0-1.533,11.413,5.618,5.618,0,0,1,.649,2.387,6.882,6.882,0,0,1-.431,2.068,5.617,5.617,0,0,0-.348,1.686c0,.23.066,1.282.514,5.745a42.5,42.5,0,0,1,.523,6.035c0,3.9.042,7.237.13,10.205v10.9C908.281,183.893,907.915,189.38,904.751,189.38Zm-.931-2.33a2.964,2.964,0,0,0,.4.371h0a1.657,1.657,0,0,0,.552.343c.427,0,1.888-.579,1.888-8V168.891c-.087-2.96-.13-6.315-.13-10.23a41.411,41.411,0,0,0-.51-5.836c-.528-5.248-.528-5.771-.528-5.944a7.072,7.072,0,0,1,.431-2.2,5.323,5.323,0,0,0,.348-1.557,4.443,4.443,0,0,0-.563-1.84l-.086-.172v-.191a53.05,53.05,0,0,1,1.576-11.966c.854-3.682,1.948-7.707,3.249-11.963,3.18-10.916,3.85-14.2,3.85-15.039,0-.028,0-.113-.2-.259a1.074,1.074,0,0,0-.678-.227c-.008,0-1.1.233-2.578,6.622-1.037,4.151-2.123,9.275-3.23,15.243-1.191,6.061-1.964,8.223-2.478,9.136l.2.489-.751,3.382-.8-.2c-.785-.194-1.678-1.018-3.951-8.846l-1.547-4.9c-1.039-3.716-2.211-7.49-3.491-11.246-1.622-5.292-2.552-6.988-2.971-7.532l-.945.743a43.014,43.014,0,0,0,1.055,4.224c.944,3.6,2.983,9.542,6.067,17.682,1.041,2.952,2.078,5.839,3.111,8.686,1.023,2.811,1.8,4.845,2.314,6.043l.105.251-.383,1.541.73,1.707.649,9.191c.259,4.666.39,8.3.39,10.8C904.915,177.059,904.556,184.457,903.821,187.049Z" transform="translate(-889.11 -99.853)"/></g></g><g transform="translate(748.434 206.768)"><g transform="translate(0 15.333)"><path class="c" d="M761.642,180.882a1.529,1.529,0,0,1-.929-.29,1.727,1.727,0,0,1-.594-.808,1.76,1.76,0,0,1-.1-.615,1.176,1.176,0,0,1,.147-.634,1.241,1.241,0,0,1,.189-.231,1.169,1.169,0,0,1,.345-.231,1.7,1.7,0,0,1,.515-.126,2.1,2.1,0,0,1,.685.068,4.432,4.432,0,0,1,1.092.443,7.716,7.716,0,0,0,1.036.5,1.508,1.508,0,0,0,.1-.115,1.322,1.322,0,0,1,.113-.136,3.815,3.815,0,0,0,.473-.825,5.332,5.332,0,0,0,.309-1,3.993,3.993,0,0,0,.078-1.02,2.323,2.323,0,0,0-.227-.9,1.69,1.69,0,0,0-.62-.74,1.768,1.768,0,0,0-.767-.259,3.452,3.452,0,0,0-.825.018c-.282.039-.541.065-.775.078a14.724,14.724,0,0,0-1.733.249q-.847.172-1.649.366-1.255.289-2.445.683c-.795.264-1.579.54-2.353.837s-1.542.592-2.3.895-1.515.592-2.277.874l-.183-.808q1.2-.442,2.376-.9c.783-.309,1.567-.609,2.347-.9s1.563-.571,2.354-.827,1.583-.481,2.381-.673q.888-.211,1.735-.385a15.954,15.954,0,0,1,1.69-.251l1-.076a3.517,3.517,0,0,1,.972.058,2.288,2.288,0,0,1,.874.385,2.376,2.376,0,0,1,.718.922,3.336,3.336,0,0,1,.309,1.193,4.765,4.765,0,0,1-.1,1.4,5.8,5.8,0,0,1-.358,1.2,4.651,4.651,0,0,1-.571,1.008,8.18,8.18,0,0,0,1.316.482,5.29,5.29,0,0,0,1.63.154,9.007,9.007,0,0,0,1.958-.327q1.071-.289,2.206-.693t2.262-.885q1.129-.481,2.143-.885l.183.808c-.705.3-1.436.6-2.191.924s-1.513.618-2.27.895-1.5.507-2.227.693a9.907,9.907,0,0,1-2.05.317,5.809,5.809,0,0,1-1.958-.23,10.74,10.74,0,0,1-1.55-.636,3.05,3.05,0,0,1-1.071.712,4.594,4.594,0,0,1-1.367.251Zm-1.015-1.521a.572.572,0,0,0,.141.367.977.977,0,0,0,.288.21.861.861,0,0,0,.332.086c.113.008.207.01.283.01a4.555,4.555,0,0,0,.986-.125,2.11,2.11,0,0,0,.762-.376q-.41-.211-.811-.4a3.969,3.969,0,0,0-.825-.288,3.127,3.127,0,0,0-.332-.078,1.163,1.163,0,0,0-.395-.01.534.534,0,0,0-.316.163A.592.592,0,0,0,760.628,179.361Z" transform="translate(-748.12 -172.296)"/><path class="d" d="M761.957,182.019a2.329,2.329,0,0,1-1.418-.45,2.6,2.6,0,0,1-1.032-2.073,2,2,0,0,1,.259-1.062,2.067,2.067,0,0,1,.906-.8,2.443,2.443,0,0,1,.77-.2,2.88,2.88,0,0,1,.969.089,5.261,5.261,0,0,1,1.306.529c.118.068.238.134.361.2.06-.108.126-.24.188-.382a4.408,4.408,0,0,0,.259-.842,3.177,3.177,0,0,0,.063-.812,1.5,1.5,0,0,0-.142-.584.978.978,0,0,0-.307-.4.926.926,0,0,0-.418-.142,2.681,2.681,0,0,0-.633.013c-.314.042-.594.07-.846.084a14.14,14.14,0,0,0-1.612.233c-.557.113-1.1.235-1.623.359-.82.191-1.618.414-2.379.665q-1.175.388-2.321.824c-.767.295-1.531.589-2.285.892s-1.526.6-2.295.88a.822.822,0,0,1-1.089-.589l-.183-.809a.819.819,0,0,1,.518-.953q1.189-.439,2.359-.9t2.356-.908c.793-.3,1.591-.579,2.392-.838s1.622-.494,2.442-.693c.6-.144,1.186-.272,1.759-.39a16.683,16.683,0,0,1,1.78-.264l1.016-.078a4.367,4.367,0,0,1,1.2.073,3.109,3.109,0,0,1,1.185.519,3.163,3.163,0,0,1,.983,1.235,4.155,4.155,0,0,1,.388,1.486,5.54,5.54,0,0,1-.113,1.644,6.547,6.547,0,0,1-.4,1.348c-.039.1-.083.188-.125.28.108.034.218.066.33.1a4.585,4.585,0,0,0,1.376.125,8.2,8.2,0,0,0,1.777-.3c.7-.186,1.411-.411,2.147-.673s1.478-.553,2.214-.867q1.139-.483,2.159-.892a.814.814,0,0,1,.688.034.827.827,0,0,1,.421.549l.185.808a.824.824,0,0,1-.484.94l-2.188.922c-.771.329-1.539.63-2.31.911s-1.554.524-2.3.717a10.93,10.93,0,0,1-2.222.343,6.868,6.868,0,0,1-2.245-.27,12.185,12.185,0,0,1-1.167-.445,3.614,3.614,0,0,1-.914.51,5.337,5.337,0,0,1-1.615.3Zm-.79-2.364v.008l.589-.036,0-.013,0-.015Z" transform="translate(-748.434 -172.61)"/></g><g transform="translate(27.258 15.354)"><path class="c" d="M804.262,177.969q-1.112.442-2.275.893t-2.29.837c-.752.257-1.483.481-2.193.675a14.743,14.743,0,0,1-1.965.4.553.553,0,0,1-.12.019h-.12a2.074,2.074,0,0,1-.93-.231,2.5,2.5,0,0,1-.817-.654,3.126,3.126,0,0,1-.735-2.02c-.008-.128-.016-.33-.019-.607s0-.618.006-1.029a3.53,3.53,0,0,0-.12-1.049,1.876,1.876,0,0,0-.416-.777,1.768,1.768,0,0,0-1.324-.463,2.409,2.409,0,0,0-2.164,1.107,4.6,4.6,0,0,0-.565,1.191q-.218.685-.4,1.473c-.057.269-.125.549-.2.837s-.16.565-.24.829-.152.5-.218.7-.117.358-.156.461l-.55-.345c.113-.322.249-.744.409-1.27a12.921,12.921,0,0,0,.38-1.625,6.53,6.53,0,0,0,.078-1.617,2.145,2.145,0,0,0-.5-1.279,1.774,1.774,0,0,0-1.324-.463,2.406,2.406,0,0,0-2.157,1.1,4.655,4.655,0,0,0-.558,1.193q-.216.694-.4,1.465c-.057.269-.125.55-.206.845s-.158.571-.239.827-.155.492-.225.7-.124.367-.164.471l-.549-.345c.094-.283.189-.591.29-.926s.193-.675.282-1.029.163-.7.225-1.047a8.534,8.534,0,0,0,.12-.963,3.041,3.041,0,0,0-.12-1.049,1.845,1.845,0,0,0-.431-.757,1.389,1.389,0,0,0-.563-.377,1.68,1.68,0,0,0-.746-.086,24.591,24.591,0,0,0-3.51.432q-1.692.337-3.319.829t-3.213,1.107q-1.588.614-3.208,1.267c-.141.066-.282.123-.423.175a3.964,3.964,0,0,0-.409.173l-.183-.808c.142-.065.282-.123.422-.175s.278-.1.409-.152q1.633-.655,3.242-1.28t3.249-1.125q1.641-.5,3.353-.848a24.812,24.812,0,0,1,3.573-.443,2.063,2.063,0,0,1,.952.146,2.15,2.15,0,0,1,.754.511,2.8,2.8,0,0,1,.691,1.461,4.775,4.775,0,0,1,.38-.675,3.04,3.04,0,0,1,2.678-1.444,3.477,3.477,0,0,1,.858.126,1.782,1.782,0,0,1,.846.51,2.857,2.857,0,0,1,.689,1.482,4.961,4.961,0,0,1,.382-.675,3,3,0,0,1,2.678-1.444,3.5,3.5,0,0,1,.859.126,1.8,1.8,0,0,1,.846.51,2.915,2.915,0,0,1,.584,1.078,4.574,4.574,0,0,1,.191,1.424q-.014.595-.008.99c.005.262.008.458.008.586a2.318,2.318,0,0,0,.189.866,2.7,2.7,0,0,0,.332.558,2,2,0,0,0,.718.549,1.451,1.451,0,0,0,.817.123,13.733,13.733,0,0,0,1.924-.4c.689-.193,1.409-.416,2.155-.673s1.5-.531,2.269-.825,1.516-.591,2.248-.885Z" transform="translate(-764.963 -172.309)"/><path class="d" d="M795.732,181.935a3.039,3.039,0,0,1-1.416-.317,3.337,3.337,0,0,1-1.083-.866,3.938,3.938,0,0,1-.925-2.525c-.006-.105-.014-.32-.02-.613s0-.639.007-1.063a2.682,2.682,0,0,0-.088-.8,1.073,1.073,0,0,0-.231-.447,1.815,1.815,0,0,0-1.607-.01,1.76,1.76,0,0,0-.592.56,3.814,3.814,0,0,0-.461.979q-.209.653-.384,1.408c-.056.269-.129.563-.214.867s-.163.583-.246.853l-.222.712c-.071.223-.128.39-.17.5a.824.824,0,0,1-1.209.4l-.549-.346a.824.824,0,0,1-.338-.968c.108-.314.243-.725.4-1.238a12.259,12.259,0,0,0,.354-1.521,5.778,5.778,0,0,0,.071-1.415,1.336,1.336,0,0,0-.3-.8,1.894,1.894,0,0,0-1.6,0,1.726,1.726,0,0,0-.583.547,3.923,3.923,0,0,0-.457.981c-.136.439-.265.909-.382,1.4-.055.264-.128.562-.214.872s-.162.587-.244.853l-.4,1.214a.824.824,0,0,1-1.212.414l-.549-.346a.827.827,0,0,1-.343-.955c.092-.275.185-.575.283-.9s.184-.654.272-1,.154-.66.214-.989c.053-.312.089-.607.108-.876a2.219,2.219,0,0,0-.084-.748,1.064,1.064,0,0,0-.232-.424.625.625,0,0,0-.265-.183.854.854,0,0,0-.379-.037,24.045,24.045,0,0,0-3.431.419c-1.1.22-2.19.492-3.24.809s-2.126.686-3.152,1.086q-1.583.612-3.2,1.264c-.12.058-.28.121-.438.181a3.442,3.442,0,0,0-.343.144.824.824,0,0,1-1.16-.56l-.183-.808a.821.821,0,0,1,.468-.934c.159-.07.312-.134.468-.193l.4-.15c1.083-.434,2.167-.861,3.238-1.279,1.109-.43,2.22-.816,3.309-1.146s2.256-.628,3.431-.866a25.555,25.555,0,0,1,3.69-.46,2.884,2.884,0,0,1,1.309.206,2.989,2.989,0,0,1,1.039.706,2.914,2.914,0,0,1,.257.3,3.853,3.853,0,0,1,2.9-1.215,4.2,4.2,0,0,1,1.065.154,2.623,2.623,0,0,1,1.235.736,3.326,3.326,0,0,1,.259.315,3.83,3.83,0,0,1,2.9-1.206,4.209,4.209,0,0,1,1.067.154,2.626,2.626,0,0,1,1.233.736,3.733,3.733,0,0,1,.775,1.4,5.288,5.288,0,0,1,.228,1.686c-.01.387-.011.707-.006.961l.006.6a1.45,1.45,0,0,0,.112.515,1.953,1.953,0,0,0,.228.392,1.168,1.168,0,0,0,.416.316.639.639,0,0,0,.359.06,13,13,0,0,0,1.821-.382c.677-.188,1.382-.406,2.111-.659s1.486-.524,2.243-.816,1.5-.586,2.235-.88a.812.812,0,0,1,.688.034.821.821,0,0,1,.422.547l.183.809a.822.822,0,0,1-.5.947c-.744.295-1.505.6-2.282.9s-1.56.589-2.324.848-1.513.492-2.24.689a15.732,15.732,0,0,1-2.078.426C795.923,181.914,795.768,181.935,795.732,181.935Z" transform="translate(-765.277 -172.623)"/></g><g transform="translate(65.551 15.36)"><path class="c" d="M816.889,177.946a20.339,20.339,0,0,1-2,.685c-.694.2-1.41.366-2.141.5s-1.471.239-2.214.309-1.479.105-2.212.105a7.216,7.216,0,0,1-2.945-.52c-.028.052-.058.1-.091.155a1.216,1.216,0,0,1-.12.154,3.937,3.937,0,0,1-1.249,1.066,3.008,3.008,0,0,1-1.457.395,1.978,1.978,0,0,1-1.416-.539,2.647,2.647,0,0,1-.754-1.481,4.928,4.928,0,0,1-.037-1.722,5.635,5.635,0,0,1,.542-1.664,2.636,2.636,0,0,1,.263-.4,3.96,3.96,0,0,1,.353-.406,4.63,4.63,0,0,1,.38-.346,3.531,3.531,0,0,1,.345-.249,28.312,28.312,0,0,0-2.974.586q-1.479.376-2.939.866t-2.889,1.049q-1.43.558-2.811,1.117l-.888.345-.183-.787.458-.184c.146-.057.293-.118.443-.183q1.621-.653,3.208-1.269t3.2-1.117a32.569,32.569,0,0,1,3.311-.835,25.135,25.135,0,0,1,3.544-.435h.255a1.982,1.982,0,0,1,1.536.636,2.528,2.528,0,0,1,.555.961,4.618,4.618,0,0,1,.22,1.27,5.066,5.066,0,0,1-.084,1.183,5.713,5.713,0,0,1-.34,1.126,7.522,7.522,0,0,0,2.565.384c.714,0,1.439-.036,2.17-.105s1.458-.17,2.17-.3,1.416-.29,2.1-.481a17.616,17.616,0,0,0,1.96-.675Zm-14.431,1.982a2.552,2.552,0,0,0,1.225-.327,3.388,3.388,0,0,0,1.058-.9c.008,0,.013-.007.013-.018a3.179,3.179,0,0,1-1.382-2.809,2.622,2.622,0,0,1,.079-.644,2.217,2.217,0,0,1,.224-.578,1.334,1.334,0,0,1,.361-.414.788.788,0,0,1,.465-.154,2.412,2.412,0,0,0-.374-.086,2.053,2.053,0,0,0-.259-.029,2.26,2.26,0,0,0-1.34.442,4.234,4.234,0,0,0-.55.511,4.28,4.28,0,0,0-.633.885,4.6,4.6,0,0,0-.459,1.23,3.618,3.618,0,0,0-.007,1.51,1.79,1.79,0,0,0,.29.741,1.525,1.525,0,0,0,.443.422,1.358,1.358,0,0,0,.464.185A2.472,2.472,0,0,0,802.458,179.928Zm1.536-4.059a2.333,2.333,0,0,0,1.17,2.135,4.212,4.212,0,0,0,.408-1.961,3.218,3.218,0,0,0-.092-.693,2.605,2.605,0,0,0-.2-.558.807.807,0,0,0-.317-.222.47.47,0,0,0-.473.049,1.208,1.208,0,0,0-.33.4A1.757,1.757,0,0,0,803.994,175.869Z" transform="translate(-788.625 -172.312)"/><path class="d" d="M802.772,181.932a2.8,2.8,0,0,1-1.983-.764,3.482,3.482,0,0,1-1-1.923,5.739,5.739,0,0,1-.041-2.007,6.358,6.358,0,0,1,.521-1.7c-.2.047-.4.094-.6.144-.953.243-1.919.528-2.877.85s-1.911.667-2.852,1.034-1.887.741-2.8,1.112l-.9.351a.838.838,0,0,1-.683-.039.82.82,0,0,1-.417-.542l-.182-.788a.822.822,0,0,1,.5-.953l.88-.356c1.1-.445,2.172-.869,3.234-1.28s2.151-.793,3.251-1.136a33.678,33.678,0,0,1,3.4-.856,26.148,26.148,0,0,1,3.659-.45l.3,0a2.819,2.819,0,0,1,2.144.9,3.346,3.346,0,0,1,.731,1.259,5.663,5.663,0,0,1,.259,1.49,5.783,5.783,0,0,1-.1,1.377c-.024.134-.055.27-.089.4a13.912,13.912,0,0,0,3.6.026q1.065-.1,2.1-.29c.689-.123,1.366-.278,2.025-.463a17.015,17.015,0,0,0,1.866-.642.834.834,0,0,1,.7.032.824.824,0,0,1,.421.562l.167.808a.826.826,0,0,1-.5.932,21.943,21.943,0,0,1-2.081.71c-.722.205-1.469.38-2.224.518s-1.516.246-2.282.317a13.767,13.767,0,0,1-4.939-.243,4.676,4.676,0,0,1-1.363,1.109A3.841,3.841,0,0,1,802.772,181.932Zm.112-6.129a3.7,3.7,0,0,0-.507.715,3.761,3.761,0,0,0-.374,1.013,2.809,2.809,0,0,0,0,1.17,1,1,0,0,0,.142.406.763.763,0,0,0,.2.206.524.524,0,0,0,.183.079,1.481,1.481,0,0,0,1.078-.2,2.477,2.477,0,0,0,.255-.16,4.1,4.1,0,0,1-1-2.847A3.685,3.685,0,0,1,802.884,175.8Z" transform="translate(-788.939 -172.627)"/></g><g transform="translate(92.823 15.36)"><path class="c" d="M833.741,177.946a20.47,20.47,0,0,1-2,.685,22.012,22.012,0,0,1-2.144.5q-1.1.2-2.211.309t-2.214.105a7.218,7.218,0,0,1-2.945-.52q-.044.078-.092.155a1.1,1.1,0,0,1-.12.154,3.922,3.922,0,0,1-1.246,1.066,3.026,3.026,0,0,1-1.459.395,1.984,1.984,0,0,1-1.416-.539,2.678,2.678,0,0,1-.754-1.481,4.88,4.88,0,0,1-.034-1.722,5.494,5.494,0,0,1,.542-1.664,2.606,2.606,0,0,1,.259-.4,4.393,4.393,0,0,1,.353-.406,4.622,4.622,0,0,1,.382-.346,3.561,3.561,0,0,1,.345-.249,28.325,28.325,0,0,0-2.975.586q-1.481.376-2.937.866t-2.891,1.049q-1.43.558-2.811,1.117l-.888.345-.183-.787.458-.184c.146-.057.294-.118.443-.183q1.622-.653,3.207-1.269t3.2-1.117a32.828,32.828,0,0,1,3.313-.835,25.105,25.105,0,0,1,3.544-.435h.254a1.98,1.98,0,0,1,1.536.636,2.52,2.52,0,0,1,.557.961,4.641,4.641,0,0,1,.22,1.27,5.021,5.021,0,0,1-.086,1.183,5.844,5.844,0,0,1-.338,1.126,7.505,7.505,0,0,0,2.565.384q1.071,0,2.17-.105t2.17-.3c.716-.128,1.415-.29,2.1-.481a17.571,17.571,0,0,0,1.958-.675Zm-14.432,1.982a2.559,2.559,0,0,0,1.227-.327,3.381,3.381,0,0,0,1.057-.9c.01,0,.013-.007.013-.018a3.178,3.178,0,0,1-1.381-2.809,2.705,2.705,0,0,1,.078-.644,2.184,2.184,0,0,1,.227-.578,1.308,1.308,0,0,1,.359-.414.78.78,0,0,1,.464-.154,2.453,2.453,0,0,0-.374-.086,2.1,2.1,0,0,0-.26-.029,2.268,2.268,0,0,0-1.34.442,4.6,4.6,0,0,0-.548.511,4.334,4.334,0,0,0-.635.885,4.665,4.665,0,0,0-.458,1.23,3.615,3.615,0,0,0-.006,1.51,1.765,1.765,0,0,0,.288.741,1.53,1.53,0,0,0,.445.422,1.359,1.359,0,0,0,.465.185A2.47,2.47,0,0,0,819.308,179.928Zm1.536-4.059a2.336,2.336,0,0,0,1.17,2.135,4.17,4.17,0,0,0,.409-1.961,3.454,3.454,0,0,0-.09-.693,2.688,2.688,0,0,0-.205-.558.832.832,0,0,0-.317-.222.47.47,0,0,0-.473.049,1.185,1.185,0,0,0-.33.4A1.758,1.758,0,0,0,820.844,175.869Z" transform="translate(-805.477 -172.312)"/><path class="d" d="M819.623,181.932a2.793,2.793,0,0,1-1.981-.764,3.485,3.485,0,0,1-1-1.923,5.838,5.838,0,0,1-.042-2.005,6.415,6.415,0,0,1,.523-1.7c-.2.047-.4.094-.6.144-.942.238-1.911.523-2.881.85s-1.908.667-2.851,1.034-1.884.741-2.8,1.112l-.9.351a.834.834,0,0,1-.681-.04.822.822,0,0,1-.419-.542l-.183-.788a.828.828,0,0,1,.5-.952l.882-.356c1.1-.445,2.17-.869,3.23-1.28s2.159-.795,3.253-1.136a33.4,33.4,0,0,1,3.4-.856,26.284,26.284,0,0,1,3.662-.45l.3,0a2.819,2.819,0,0,1,2.144.9,3.309,3.309,0,0,1,.731,1.259,5.476,5.476,0,0,1,.259,1.494,5.852,5.852,0,0,1-.1,1.374c-.026.136-.055.27-.091.4a13.933,13.933,0,0,0,3.6.026c.707-.07,1.409-.165,2.1-.29s1.361-.28,2.023-.463a16.761,16.761,0,0,0,1.864-.642.824.824,0,0,1,1.121.592l.17.808a.825.825,0,0,1-.5.934,21.816,21.816,0,0,1-2.081.71c-.72.205-1.468.38-2.222.518s-1.516.246-2.28.317a13.62,13.62,0,0,1-4.943-.244,4.632,4.632,0,0,1-1.363,1.11A3.839,3.839,0,0,1,819.623,181.932Zm.113-6.129a3.523,3.523,0,0,0-.506.715,3.882,3.882,0,0,0-.377,1.016,2.849,2.849,0,0,0,0,1.168.966.966,0,0,0,.144.408.774.774,0,0,0,.206.2.518.518,0,0,0,.18.079,1.445,1.445,0,0,0,1.076-.2,2.619,2.619,0,0,0,.258-.16,4.1,4.1,0,0,1-1-2.847A3.289,3.289,0,0,1,819.736,175.8Z" transform="translate(-805.791 -172.627)"/></g><g transform="translate(120.094 0.017)"><path class="c" d="M850.564,183.829q-.746.231-1.67.51c-.615.185-1.258.375-1.929.566s-1.357.385-2.052.576-1.369.371-2.023.531-1.27.3-1.853.413-1.089.2-1.521.251a1.967,1.967,0,0,1-.861-.078,2.935,2.935,0,0,1-.83-.413,3.219,3.219,0,0,1-.718-.712,3.646,3.646,0,0,1-.523-.99,6.836,6.836,0,0,1-.3-1.452,16.34,16.34,0,0,1-.078-1.77c.005-.634.036-1.3.092-1.991s.126-1.4.212-2.118q-1.58,1.041-3.186,1.924t-3.255,1.683q-1.651.8-3.334,1.55t-3.4,1.52l-.185-.808q1.636-.753,3.369-1.511t3.475-1.6q1.74-.838,3.424-1.788a33.2,33.2,0,0,0,3.235-2.088q.1-.675.225-1.482c.084-.539.183-1.1.3-1.693-.328-.091-.675-.183-1.036-.28s-.733-.178-1.114-.249-.762-.125-1.142-.163a6.379,6.379,0,0,0-1.092-.019,3.113,3.113,0,0,0-.359.029,3.477,3.477,0,0,0-.506.107,2.6,2.6,0,0,0-.557.23,1.736,1.736,0,0,0-.509.424l-.393-.636a2.434,2.434,0,0,1,.633-.539,3.62,3.62,0,0,1,.657-.3,2.768,2.768,0,0,1,.591-.136c.183-.018.327-.029.431-.029a9.341,9.341,0,0,1,2.254.2q1.141.24,2.313.529.252-1.25.578-2.529t.7-2.387a15.664,15.664,0,0,1,.8-1.961,4.128,4.128,0,0,1,.874-1.259.694.694,0,0,1,.521-.241.81.81,0,0,1,.338.105,1.383,1.383,0,0,1,.437.733,4.385,4.385,0,0,1,.155,1.249,15.72,15.72,0,0,1-.416,3.722,13.946,13.946,0,0,1-1.332,3.376c.422.128.85.238,1.282.327a9.924,9.924,0,0,0,1.346.183,8.71,8.71,0,0,0,1.46-.027,10.166,10.166,0,0,0,1.605-.309l.126.827a11.02,11.02,0,0,1-1.366.28,9.673,9.673,0,0,1-1.256.086,9.465,9.465,0,0,1-1.9-.183q-.889-.182-1.735-.432a16.08,16.08,0,0,1-1.154,1.664,12.061,12.061,0,0,1-1.2,1.3q-.1.694-.21,1.7c-.076.675-.129,1.366-.162,2.078a20.267,20.267,0,0,0,.006,2.078,6.312,6.312,0,0,0,.3,1.7,2.544,2.544,0,0,0,1.126,1.385,2.451,2.451,0,0,0,.769.288,2.165,2.165,0,0,0,.769.018q.634-.075,1.466-.24c.553-.107,1.147-.236,1.782-.384s1.285-.307,1.952-.481,1.324-.353,1.968-.539,1.257-.375,1.845-.568,1.117-.385,1.586-.576Zm-11.683-10.448c-.18-.05-.358-.108-.536-.172a5.905,5.905,0,0,0-.565-.173c-.074.4-.145.785-.21,1.165s-.128.753-.183,1.125a11.438,11.438,0,0,0,.753-.9C838.39,174.1,838.635,173.753,838.881,173.381Zm1.761-8.789a3.9,3.9,0,0,0-.739,1.107,14.345,14.345,0,0,0-.719,1.788q-.345,1.027-.662,2.249c-.212.816-.408,1.644-.586,2.492.227.063.453.131.685.2s.466.142.712.22a13.8,13.8,0,0,0,1.366-3.29,14.123,14.123,0,0,0,.437-3.615,3.357,3.357,0,0,0-.084-.827.734.734,0,0,0-.2-.4.049.049,0,0,0-.042-.018A.27.27,0,0,0,840.642,164.592Z" transform="translate(-822.328 -162.831)"/><path class="d" d="M839.575,187.83a2.834,2.834,0,0,1-.846-.131,3.746,3.746,0,0,1-1.065-.528,4.072,4.072,0,0,1-.9-.892,4.51,4.51,0,0,1-.639-1.209,7.869,7.869,0,0,1-.338-1.641,17.149,17.149,0,0,1-.083-1.858q.01-.988.1-2.055c.011-.147.024-.3.037-.445-.6.366-1.2.714-1.795,1.041q-1.625.9-3.294,1.7t-3.356,1.56l-3.4,1.52a.823.823,0,0,1-1.139-.57l-.183-.808a.825.825,0,0,1,.459-.931q1.641-.753,3.379-1.515t3.45-1.586c1.112-.532,2.248-1.126,3.378-1.764a32.2,32.2,0,0,0,2.877-1.834l.175-1.146c.048-.314.1-.638.16-.968l-.3-.081c-.341-.092-.691-.168-1.053-.236s-.714-.117-1.075-.155a5.283,5.283,0,0,0-.943-.014,2.576,2.576,0,0,0-.325.024,3.263,3.263,0,0,0-.384.083,1.941,1.941,0,0,0-.382.16.94.94,0,0,0-.273.23.8.8,0,0,1-.689.291.828.828,0,0,1-.641-.387l-.394-.634a.826.826,0,0,1,.075-.969,3.276,3.276,0,0,1,.847-.717,4.561,4.561,0,0,1,.811-.367,3.538,3.538,0,0,1,.771-.172c.214-.023.385-.034.508-.034a10.273,10.273,0,0,1,2.424.22q.75.158,1.513.337c.126-.573.264-1.152.411-1.733.22-.874.46-1.69.714-2.447a16.561,16.561,0,0,1,.84-2.063,4.821,4.821,0,0,1,1.065-1.51,1.445,1.445,0,0,1,1.169-.443,1.554,1.554,0,0,1,.7.241,2.179,2.179,0,0,1,.766,1.181,5.264,5.264,0,0,1,.188,1.482,16.724,16.724,0,0,1-.438,3.918,14.441,14.441,0,0,1-.939,2.646l.257.057a9.087,9.087,0,0,0,1.234.167,7.906,7.906,0,0,0,1.321-.026,9.25,9.25,0,0,0,1.471-.283.824.824,0,0,1,.665.1.833.833,0,0,1,.366.565l.126.827a.824.824,0,0,1-.6.921,12.215,12.215,0,0,1-1.466.3,10.262,10.262,0,0,1-3.436-.107q-.607-.124-1.2-.28c-.291.447-.586.855-.879,1.222a13.618,13.618,0,0,1-1.065,1.18q-.08.6-.168,1.4c-.075.659-.126,1.332-.16,2.026a19.812,19.812,0,0,0,.008,1.992,5.529,5.529,0,0,0,.251,1.478,1.807,1.807,0,0,0,.317.568,1.71,1.71,0,0,0,.445.377,1.644,1.644,0,0,0,.51.191,1.408,1.408,0,0,0,.484.015c.439-.053.9-.129,1.435-.235q.823-.16,1.757-.379c.63-.146,1.272-.3,1.932-.476s1.306-.348,1.944-.532,1.24-.371,1.817-.558,1.078-.372,1.533-.557a.813.813,0,0,1,.7.034.826.826,0,0,1,.421.56l.17.808a.823.823,0,0,1-.563.955l-1.677.511c-.62.186-1.264.377-1.94.57s-1.361.387-2.059.579-1.385.374-2.046.536-1.3.3-1.892.421-1.134.207-1.586.261A2.475,2.475,0,0,1,839.575,187.83Zm-.356-15.858.024.006a12.646,12.646,0,0,0,.974-2.513,12.4,12.4,0,0,0,.366-2.241c-.1.261-.206.541-.3.84q-.335,1-.646,2.194C839.487,170.823,839.348,171.393,839.219,171.972Z" transform="translate(-822.642 -163.146)"/></g><g transform="translate(147.351)"><path class="c" d="M867.392,183.815q-1.114.447-2.275.887t-2.29.837q-1.129.393-2.193.681a14.536,14.536,0,0,1-1.964.406.559.559,0,0,1-.128.018h-.126a2.064,2.064,0,0,1-.966-.249,2.768,2.768,0,0,1-.838-.693,3.026,3.026,0,0,1-.677-1.983q0-.211.015-.422c.008-.141.023-.282.04-.422.029-.231.05-.46.065-.684a3.906,3.906,0,0,0-.015-.673,2.661,2.661,0,0,0-.147-.644,1.936,1.936,0,0,0-.367-.6,1.32,1.32,0,0,0-.506-.345,1.717,1.717,0,0,0-.635-.115,2.373,2.373,0,0,0-.691.105,2.262,2.262,0,0,0-.677.337,3.027,3.027,0,0,0-.443.384,4.643,4.643,0,0,0-.486.6,5.391,5.391,0,0,0-.438.77,3.585,3.585,0,0,0-.28.9q-.17.925-.248,1.683t-.162,1.625l-.607-.1q.114-1.308.29-2.625t.374-2.876c.037-.348.075-.686.112-1.02s.076-.646.113-.934.071-.537.1-.751.052-.367.069-.471a22,22,0,0,1-1.937,1.673,15.592,15.592,0,0,1-2.248,1.444c-.508.269-1.047.54-1.621.817s-1.162.553-1.769.838-1.219.557-1.838.825-1.23.526-1.832.769l-.17-.808q.9-.364,1.826-.759t1.825-.817q.9-.422,1.754-.838c.568-.273,1.1-.549,1.6-.817a16.156,16.156,0,0,0,2.531-1.664,20.8,20.8,0,0,0,2.092-1.914q.211-1.228.451-2.52c.161-.858.327-1.706.507-2.539s.369-1.634.571-2.4.412-1.474.634-2.115a13.426,13.426,0,0,1,.689-1.675,3.556,3.556,0,0,1,.754-1.057.693.693,0,0,1,.515-.241.632.632,0,0,1,.332.125,1.414,1.414,0,0,1,.444.722,4.134,4.134,0,0,1,.162,1.241,14.381,14.381,0,0,1-.12,1.9,13.712,13.712,0,0,1-.372,1.846,17.252,17.252,0,0,1-.649,1.913q-.4.983-.958,2.058a12.978,12.978,0,0,1-.931,1.463,16.65,16.65,0,0,1-1.481,1.769c-.037.181-.066.351-.091.511s-.045.3-.063.432a3.651,3.651,0,0,0-.063.434c-.024.21-.055.458-.093.74s-.078.587-.12.914-.083.651-.12.971a4.928,4.928,0,0,1,.613-.732,5.528,5.528,0,0,1,.514-.442,3.134,3.134,0,0,1,.754-.375,2.819,2.819,0,0,1,.845-.154,2.208,2.208,0,0,1,.832.144,1.963,1.963,0,0,1,.727.5,2.915,2.915,0,0,1,.521.838,3.379,3.379,0,0,1,.217.875,5.162,5.162,0,0,1,.029.864c-.013.283-.036.547-.063.788-.019.141-.032.273-.042.395s-.015.235-.015.337a1.931,1.931,0,0,0,.156.829,3.27,3.27,0,0,0,.311.537,1.849,1.849,0,0,0,.738.566,1.707,1.707,0,0,0,.84.146,13.948,13.948,0,0,0,1.931-.4q1.044-.286,2.162-.672t2.27-.829c.766-.3,1.515-.589,2.248-.885Zm-13.966-13.541q-.311,1.306-.571,2.623c-.175.88-.325,1.691-.458,2.436a15.776,15.776,0,0,0,1.015-1.309,10.985,10.985,0,0,0,.664-1.076c.356-.694.662-1.343.914-1.952a14.878,14.878,0,0,0,.622-1.782,12.122,12.122,0,0,0,.345-1.72,14.2,14.2,0,0,0,.105-1.761c0-.091-.005-.214-.015-.375a2.557,2.557,0,0,0-.069-.463.913.913,0,0,0-.148-.335c-.061-.078-.149-.07-.262.018a2.7,2.7,0,0,0-.4.511,7.02,7.02,0,0,0-.5,1.02q-.276.663-.586,1.683T853.426,170.275Z" transform="translate(-839.17 -162.822)"/><path class="d" d="M858.857,187.782a3.017,3.017,0,0,1-1.474-.345,3.541,3.541,0,0,1-1.091-.9,3.831,3.831,0,0,1-.866-2.505c0-.159.006-.317.018-.479s.024-.314.047-.476c.024-.206.044-.418.056-.626a3.086,3.086,0,0,0-.011-.534,1.986,1.986,0,0,0-.1-.452,1.12,1.12,0,0,0-.212-.333.556.556,0,0,0-.189-.123,1.247,1.247,0,0,0-.786.011,1.45,1.45,0,0,0-.432.218,2.178,2.178,0,0,0-.338.293,3.758,3.758,0,0,0-.395.485,4.608,4.608,0,0,0-.372.654,2.887,2.887,0,0,0-.215.7c-.108.6-.188,1.138-.238,1.623l-.16,1.62a.827.827,0,0,1-.316.573.815.815,0,0,1-.634.162l-.607-.1a.824.824,0,0,1-.691-.884q.116-1.328.294-2.664c.115-.875.241-1.832.372-2.869l.11-1.008c-.11.089-.223.176-.335.264a16.744,16.744,0,0,1-2.365,1.518q-.774.41-1.651.83t-1.775.842q-.92.43-1.861.837c-.626.272-1.243.532-1.851.777a.823.823,0,0,1-1.115-.6l-.168-.808a.822.822,0,0,1,.5-.932c.6-.24,1.2-.492,1.809-.753s1.207-.528,1.8-.806,1.178-.557,1.743-.832,1.081-.539,1.57-.8a15.616,15.616,0,0,0,2.4-1.581,20.8,20.8,0,0,0,1.842-1.662c.128-.744.265-1.508.411-2.284q.24-1.3.511-2.56t.58-2.44c.209-.791.424-1.518.654-2.178a14.448,14.448,0,0,1,.732-1.774,4.272,4.272,0,0,1,.945-1.3,1.464,1.464,0,0,1,1.165-.439,1.437,1.437,0,0,1,.757.311,2.191,2.191,0,0,1,.694,1.1,4.839,4.839,0,0,1,.2,1.49,15.177,15.177,0,0,1-.128,2,14.732,14.732,0,0,1-.393,1.955,18.412,18.412,0,0,1-.68,2c-.272.676-.607,1.395-.994,2.135a13.937,13.937,0,0,1-.991,1.558,17.3,17.3,0,0,1-1.385,1.68c-.015.081-.028.159-.037.233l-.063.432a3.472,3.472,0,0,0-.063.408c-.013.133-.031.275-.05.43a3.929,3.929,0,0,1,.516-.218,3.61,3.61,0,0,1,1.091-.2,3.3,3.3,0,0,1,1.149.2,2.8,2.8,0,0,1,1.031.7,3.839,3.839,0,0,1,.688,1.1,4.413,4.413,0,0,1,.269,1.084,6.259,6.259,0,0,1,.033.994c-.013.306-.037.586-.066.841-.021.151-.031.262-.041.367s-.011.194-.011.273a1.086,1.086,0,0,0,.075.473,2.549,2.549,0,0,0,.234.409,1.029,1.029,0,0,0,.393.293.942.942,0,0,0,.439.084,13.349,13.349,0,0,0,1.791-.379c.682-.188,1.384-.408,2.114-.657s1.484-.524,2.238-.817,1.51-.586,2.236-.88a.821.821,0,0,1,1.112.581l.185.808a.824.824,0,0,1-.5.947c-.745.3-1.509.594-2.285.89s-1.555.579-2.314.845-1.52.5-2.248.7a15.8,15.8,0,0,1-2.076.429C859.054,187.761,858.891,187.782,858.857,187.782Zm-4.314-17c-.041.163-.078.329-.115.492l.118-.28a14.6,14.6,0,0,0,.586-1.681,11.34,11.34,0,0,0,.322-1.6c.011-.087.021-.175.031-.264-.1.272-.193.573-.295.9-.2.665-.419,1.478-.647,2.434Z" transform="translate(-839.485 -163.136)"/></g><g transform="translate(174.568 5.575)"><path class="c" d="M882.1,181.687c-.17.066-.338.134-.506.2s-.338.144-.508.222c-.639.254-1.283.511-1.931.767s-1.286.5-1.91.712-1.238.408-1.84.568a14.155,14.155,0,0,1-1.719.356,1.344,1.344,0,0,1-.218.029c-.1,0-.214.01-.347.01a5.556,5.556,0,0,1-.669-.047,3.754,3.754,0,0,1-.775-.194,3.69,3.69,0,0,1-.8-.4,2.571,2.571,0,0,1-.706-.7,4.974,4.974,0,0,1-.761-3.386c.029-.395.07-.775.126-1.134s.113-.685.17-.981a22.5,22.5,0,0,0-2.8.385,25.823,25.823,0,0,0-2.53.654q-1.226.384-2.411.866t-2.423,1.02c-.414.18-.828.356-1.248.529s-.853.35-1.3.528l-.183-.808q.675-.267,1.3-.528c.419-.173.833-.35,1.246-.531q1.3-.556,2.538-1.057t2.529-.9a24.172,24.172,0,0,1,2.678-.675,21.1,21.1,0,0,1,3-.346l.435-.018c-.037.178-.066.322-.09.432s-.049.235-.076.375q-.085.422-.193,1.02a11.381,11.381,0,0,0-.147,1.249,4.009,4.009,0,0,0,.579,2.712,2.123,2.123,0,0,0,.845.732,3.679,3.679,0,0,0,.944.307,3.582,3.582,0,0,0,.8.058c.23-.013.372-.021.429-.021a13.959,13.959,0,0,0,1.67-.354q.881-.24,1.811-.568t1.889-.71q.959-.384,1.916-.77l1.015-.4ZM872.751,168.8a.561.561,0,0,1-.324-.107.674.674,0,0,1-.241-.3,1.011,1.011,0,0,1-.027-.808.763.763,0,0,1,.227-.366.515.515,0,0,1,.351-.136.526.526,0,0,1,.466.27,1.051,1.051,0,0,1,.141.636.968.968,0,0,1-.212.613A.523.523,0,0,1,872.751,168.8Z" transform="translate(-855.987 -166.268)"/><path class="d" d="M873.432,185.689a6.05,6.05,0,0,1-.772-.053,4.466,4.466,0,0,1-.95-.235,4.592,4.592,0,0,1-.973-.492,3.462,3.462,0,0,1-.926-.918,5.769,5.769,0,0,1-.908-3.916c.029-.4.071-.774.123-1.131-.571.07-1.12.159-1.634.265-.838.173-1.662.385-2.452.633s-1.578.532-2.348.843-1.584.655-2.405,1.011c-.416.183-.837.363-1.261.536s-.861.353-1.314.534a.821.821,0,0,1-1.105-.584l-.184-.809a.823.823,0,0,1,.5-.947q.67-.267,1.293-.523t1.23-.524q1.313-.563,2.559-1.066c.851-.341,1.724-.654,2.594-.926a25.57,25.57,0,0,1,2.766-.7,22.1,22.1,0,0,1,3.114-.359l.439-.019a.837.837,0,0,1,.665.291.824.824,0,0,1,.178.7l-.164.774c-.058.3-.123.636-.192,1.028a10.9,10.9,0,0,0-.136,1.159,3.257,3.257,0,0,0,.421,2.172,1.337,1.337,0,0,0,.529.473,2.958,2.958,0,0,0,.733.243,3.121,3.121,0,0,0,.615.049c.252-.016.411-.024.474-.024.375-.063.9-.175,1.452-.325.571-.154,1.155-.338,1.755-.549s1.228-.447,1.854-.7l2.934-1.177a.825.825,0,0,1,1.112.6l.168.808a.824.824,0,0,1-.508.937l-2.939,1.189c-.657.262-1.306.5-1.941.723s-1.28.422-1.9.586a15.022,15.022,0,0,1-1.814.377,1.7,1.7,0,0,1-.281.036C873.712,185.686,873.581,185.689,873.432,185.689Zm-.366-15.755a1.361,1.361,0,0,1-.786-.249,1.482,1.482,0,0,1-.531-.642,1.847,1.847,0,0,1-.045-1.437,1.545,1.545,0,0,1,.45-.688,1.367,1.367,0,0,1,2.062.312,1.9,1.9,0,0,1,.262,1.146,1.745,1.745,0,0,1-.434,1.11A1.315,1.315,0,0,1,873.066,169.934Zm.186-1.565h0Zm.265-.7-.7.439a.3.3,0,0,0,.164.105Z" transform="translate(-856.303 -166.581)"/></g><g transform="translate(199.682 15.314)"><path class="c" d="M899.758,177.926a37.73,37.73,0,0,1-4.336,1.471,36.657,36.657,0,0,1-4.3.914q-1.452.211-2.8.327t-2.6.115H885.3a2.034,2.034,0,0,1-1.4-.549,2.639,2.639,0,0,1-.748-1.471,5.1,5.1,0,0,1-.019-1.711,5.535,5.535,0,0,1,.542-1.656,5.143,5.143,0,0,1,.422-.693,4.708,4.708,0,0,1,.452-.537q-1.5.211-2.9.557t-2.784.8c-.916.3-1.825.631-2.727.989s-1.814.725-2.735,1.1l-.889.346-.183-.808c.16-.065.312-.123.458-.173s.294-.108.443-.173q1.622-.653,3.214-1.27t3.227-1.115a33.5,33.5,0,0,1,3.342-.838,25.268,25.268,0,0,1,3.55-.432,2.353,2.353,0,0,1,.923.105,1.883,1.883,0,0,1,.8.531,3,3,0,0,1,.555.913,2.938,2.938,0,0,1,.233,1.222,1.979,1.979,0,0,1-.563,1.385,1.9,1.9,0,0,1-.945.463,10.076,10.076,0,0,1-1.057.133c-.131.013-.256.023-.374.031a1.652,1.652,0,0,0-.332.047,1.332,1.332,0,0,1-.139.029.865.865,0,0,0-.141.029c-.152.026-.309.053-.474.086a3.717,3.717,0,0,0-.479.126,1.962,1.962,0,0,0-.429.2,1.4,1.4,0,0,0-.338.3,1.666,1.666,0,0,0,.282.617,1.571,1.571,0,0,0,.4.364,1.2,1.2,0,0,0,.435.173,2.115,2.115,0,0,0,.389.04c.864.013,1.782-.018,2.756-.087s1.971-.184,2.994-.338a35.186,35.186,0,0,0,4.242-.913,40.181,40.181,0,0,0,4.285-1.452Zm-14.363-3.539a3.077,3.077,0,0,0-.479.413,4.182,4.182,0,0,0-.571.741,4.877,4.877,0,0,0-.465,1.01,3.846,3.846,0,0,0-.191,1.24,2.073,2.073,0,0,1,.84-.422c.314-.076.617-.146.908-.212a.816.816,0,0,0,.141-.01.846.846,0,0,0,.142-.027,2.876,2.876,0,0,1,.359-.058c.126-.013.259-.024.4-.037.3-.028.6-.065.914-.117a1.454,1.454,0,0,0,.762-.346.921.921,0,0,0,.311-.712,1.831,1.831,0,0,0-.149-.749,2.307,2.307,0,0,0-.416-.693,1.558,1.558,0,0,0-1.17-.463,1.975,1.975,0,0,0-.675.116A3.449,3.449,0,0,0,885.395,174.387Z" transform="translate(-871.506 -172.283)"/><path class="d" d="M886.033,181.892h-.421a2.864,2.864,0,0,1-1.96-.772,3.438,3.438,0,0,1-.992-1.914,5.923,5.923,0,0,1-.024-2,6.3,6.3,0,0,1,.485-1.617q-.49.1-.963.22c-.93.228-1.846.49-2.723.778q-1.35.447-2.682.974c-.9.358-1.811.725-2.73,1.1l-.9.35a.825.825,0,0,1-1.1-.584l-.183-.808a.822.822,0,0,1,.5-.947c.173-.07.338-.133.495-.186.128-.045.259-.1.392-.154,1.1-.443,2.173-.869,3.24-1.28s2.17-.8,3.284-1.134a34.292,34.292,0,0,1,3.421-.859,26.361,26.361,0,0,1,3.667-.447,3.126,3.126,0,0,1,1.219.144,2.686,2.686,0,0,1,1.152.757,4.071,4.071,0,0,1,1,2.709,2.79,2.79,0,0,1-.8,1.949,2.733,2.733,0,0,1-1.385.691,10.3,10.3,0,0,1-1.143.144c-.115.013-.251.023-.38.031a1.048,1.048,0,0,0-.194.028l-.186.04-.6.112a2.639,2.639,0,0,0-.316.078l.028.019a1.253,1.253,0,0,0,.392.089c.833.015,1.738-.016,2.7-.084s1.94-.181,2.931-.332a34.776,34.776,0,0,0,4.143-.892,39.53,39.53,0,0,0,4.2-1.423.824.824,0,0,1,1.115.594l.168.808a.825.825,0,0,1-.494.932,38.5,38.5,0,0,1-4.43,1.5,37.467,37.467,0,0,1-4.4.937q-1.476.214-2.847.332C887.791,181.852,886.894,181.892,886.033,181.892Zm.113-6.493a2.345,2.345,0,0,0-.33.3,3.334,3.334,0,0,0-.46.6,3.5,3.5,0,0,0-.246.481c.157-.037.309-.073.461-.107a.837.837,0,0,1,.18-.019,5.265,5.265,0,0,1,.557-.091l.27-.026c.424-.039.707-.073.994-.121a.631.631,0,0,0,.345-.142.844.844,0,0,0-.047-.544,1.522,1.522,0,0,0-.268-.456,1.041,1.041,0,0,0-.952-.117A2.677,2.677,0,0,0,886.147,175.4Z" transform="translate(-871.821 -172.598)"/></g><g transform="translate(226.927 15.331)"><path class="c" d="M901.863,180.882a1.53,1.53,0,0,1-.931-.29,1.733,1.733,0,0,1-.592-.808,1.757,1.757,0,0,1-.105-.615,1.177,1.177,0,0,1,.149-.634,1.232,1.232,0,0,1,.189-.231,1.139,1.139,0,0,1,.346-.231,1.677,1.677,0,0,1,.515-.126,2.078,2.078,0,0,1,.681.068,4.423,4.423,0,0,1,1.094.443,7.783,7.783,0,0,0,1.034.5,1.029,1.029,0,0,0,.1-.115c.029-.039.066-.084.113-.136a3.693,3.693,0,0,0,.472-.825,5.2,5.2,0,0,0,.309-1,3.925,3.925,0,0,0,.079-1.02,2.363,2.363,0,0,0-.227-.9,1.692,1.692,0,0,0-.62-.74,1.768,1.768,0,0,0-.769-.259,3.438,3.438,0,0,0-.823.018c-.283.039-.541.065-.775.078a14.748,14.748,0,0,0-1.735.249q-.845.172-1.649.366-1.253.289-2.444.683c-.795.264-1.578.54-2.353.837s-1.542.592-2.3.895-1.515.592-2.275.874l-.184-.808q1.2-.442,2.376-.9c.783-.309,1.565-.609,2.347-.9s1.565-.571,2.353-.827,1.583-.481,2.382-.673q.889-.211,1.733-.385a16.05,16.05,0,0,1,1.691-.251l1-.076a3.528,3.528,0,0,1,.974.058,2.28,2.28,0,0,1,.872.385,2.39,2.39,0,0,1,.72.922,3.336,3.336,0,0,1,.309,1.193,4.819,4.819,0,0,1-.1,1.4,5.688,5.688,0,0,1-.359,1.2,4.518,4.518,0,0,1-.572,1.008,8.228,8.228,0,0,0,1.319.482,5.271,5.271,0,0,0,1.628.154,9.012,9.012,0,0,0,1.958-.327q1.071-.289,2.206-.693t2.263-.885q1.126-.481,2.143-.885l.183.808c-.706.3-1.436.6-2.193.924s-1.513.618-2.269.895-1.5.507-2.227.693a9.907,9.907,0,0,1-2.05.317,5.8,5.8,0,0,1-1.958-.23,10.746,10.746,0,0,1-1.552-.636,3.051,3.051,0,0,1-1.07.712,4.6,4.6,0,0,1-1.368.251Zm-1.015-1.521a.564.564,0,0,0,.141.367.961.961,0,0,0,.288.21.855.855,0,0,0,.332.086c.112.008.207.01.282.01a4.582,4.582,0,0,0,.987-.125,2.105,2.105,0,0,0,.761-.376q-.408-.211-.811-.4a3.955,3.955,0,0,0-.824-.288,3.176,3.176,0,0,0-.33-.078,1.173,1.173,0,0,0-.4-.01.534.534,0,0,0-.316.163A.586.586,0,0,0,900.848,179.361Z" transform="translate(-888.342 -172.294)"/><path class="d" d="M902.177,182.02a2.326,2.326,0,0,1-1.418-.45,2.5,2.5,0,0,1-.874-1.18,2.525,2.525,0,0,1-.16-.884,2.043,2.043,0,0,1,.261-1.071,2.118,2.118,0,0,1,.312-.393,2,2,0,0,1,.6-.4,2.474,2.474,0,0,1,.769-.194,2.976,2.976,0,0,1,.968.089,5.175,5.175,0,0,1,1.3.529c.118.068.239.133.361.194a3.637,3.637,0,0,0,.188-.38,4.43,4.43,0,0,0,.26-.846,3.2,3.2,0,0,0,.063-.808,1.6,1.6,0,0,0-.144-.591.9.9,0,0,0-.3-.393.935.935,0,0,0-.419-.144,2.7,2.7,0,0,0-.636.013c-.311.042-.589.07-.845.084a14.12,14.12,0,0,0-1.612.233c-.557.113-1.1.235-1.625.359-.824.193-1.623.416-2.374.665-.785.259-1.557.534-2.322.824s-1.531.589-2.282.892c-.767.3-1.529.6-2.3.88a.82.82,0,0,1-1.089-.591l-.181-.808a.821.821,0,0,1,.518-.953q1.187-.439,2.358-.9t2.356-.908q1.189-.449,2.392-.838c.809-.265,1.621-.494,2.44-.693.6-.144,1.189-.272,1.759-.39a16.717,16.717,0,0,1,1.782-.264l1.015-.078a4.27,4.27,0,0,1,1.2.071,3,3,0,0,1,2.166,1.751,4.152,4.152,0,0,1,.392,1.487,5.713,5.713,0,0,1-.113,1.644,6.529,6.529,0,0,1-.406,1.351c-.041.1-.083.188-.125.278.108.036.218.068.332.1a4.387,4.387,0,0,0,1.374.126,8.264,8.264,0,0,0,1.779-.3q1.044-.279,2.144-.673t2.214-.867c.759-.322,1.478-.62,2.162-.892a.8.8,0,0,1,.688.036.82.82,0,0,1,.421.547l.183.808a.82.82,0,0,1-.484.94l-2.191.922c-.767.329-1.537.63-2.306.91a24.009,24.009,0,0,1-2.306.719,10.9,10.9,0,0,1-2.22.343,6.637,6.637,0,0,1-2.245-.272,12.109,12.109,0,0,1-1.167-.443,3.594,3.594,0,0,1-.916.51,5.32,5.32,0,0,1-1.615.3Zm-.791-2.364,0,.011.589-.031,0-.021,0-.018Z" transform="translate(-888.656 -172.609)"/></g></g></g></svg>