<svg xmlns="http://www.w3.org/2000/svg" width="62.319" height="99.71" viewBox="0 0 62.319 99.71"><defs><style>.a{fill:#4f7a6a;}</style></defs><g transform="translate(39.491 -905.095)"><g transform="translate(-39.491 905.095)"><path class="a" d="M22.5,944.2l-5.9-11.8v-5.492a3.125,3.125,0,0,0-3.116-3.116H-.892l4.148-12.464H13.48a3.116,3.116,0,1,0,0-6.232H1.016a3.124,3.124,0,0,0-2.96,2.123l-5.512,16.573H-30.143a3.125,3.125,0,0,0-3.116,3.116V932.4l-5.9,11.8a3.163,3.163,0,0,0-.331,1.4v49.855a9.35,9.35,0,0,0,9.348,9.348H13.48a9.351,9.351,0,0,0,9.348-9.348V945.6A3.223,3.223,0,0,0,22.5,944.2Zm-5.9,9.582c-5.531-1.5-15.638-3.058-26.135,1.4-9.932,4.226-19.747,1.928-23.72.682v-9.523l5.044-10.088H11.571l5.044,10.088v7.439Z" transform="translate(39.491 -905.095)"/></g></g></svg>